<?xml version="1.0" standalone="no"?><!DOCTYPE svg PUBLIC "-//W3C//DTD SVG 1.1//EN" "http://www.w3.org/Graphics/SVG/1.1/DTD/svg11.dtd"><svg t="1727691526627" class="icon" viewBox="0 0 1024 1024" version="1.1" xmlns="http://www.w3.org/2000/svg" p-id="17367" width="256" height="256" xmlns:xlink="http://www.w3.org/1999/xlink"><path d="M491.1 192.3c43.2 0 85.1 8.4 124.4 25.1 38.1 16.1 72.3 39.2 101.7 68.5 29.4 29.4 52.4 63.6 68.5 101.7 16.7 39.4 25.1 81.2 25.1 124.4s-8.4 85.1-25.1 124.4c-16.1 38.1-39.2 72.3-68.5 101.7-29.4 29.4-63.6 52.4-101.7 68.5-39.4 16.7-81.2 25.1-124.4 25.1s-85.1-8.4-124.4-25.1c-38.1-16.1-72.3-39.2-101.7-68.5-29.4-29.4-52.4-63.6-68.5-101.7-16.7-39.4-25.1-81.2-25.1-124.4s8.4-85.1 25.1-124.4c16.1-38.1 39.2-72.3 68.5-101.7 29.4-29.4 63.6-52.4 101.7-68.5 39.3-16.7 81.2-25.1 124.4-25.1m0-60c-209.7 0-379.7 170-379.7 379.7s170 379.7 379.7 379.7 379.7-170 379.7-379.7-170-379.7-379.7-379.7z" fill="#76c4fd" p-id="17368"></path><path d="M856.7 369z" p-id="17369" fill="#76c4fd"></path><path d="M1018.5 383.1c-3.4-13.2-11.9-32.1-33.7-47.3-11-7.6-24-13.4-39.8-17.7-23-6.2-51.9-9.2-88.3-9.2v60c60.5 0 98.7 9.4 103.7 28.9 5.4 21.1-29.2 50.5-90.9 82.2-17.5 9-37.2 18.1-58.7 27.3-74 31.6-170.2 63.7-277 90.9-126.6 32.2-243.6 51.2-329.2 55.7-13.3 0.7-25.8 1.1-37.6 1.1-10 0-19.3-0.3-28.1-0.8-44.1-2.6-71.5-11.9-75.6-28.2-4.1-16.1 15.1-37.1 51.9-60.2-2.5-17.6-3.8-35.6-3.8-54 0-4.5 0.1-8.9 0.2-13.4-23.9 13-43.7 25.8-59.1 38.2C37 549 25.5 561.2 17.4 574 0.1 601.3 1.2 625.4 5.1 640.9 8.5 654.1 17 673 38.8 688.2c11 7.6 24 13.4 39.8 17.7 23 6.2 51.9 9.2 88.3 9.2h3.2c21.7-0.1 45.5-1.3 71.1-3.5 87.4-7.5 195.2-26.7 307.3-55.2 93.8-23.9 182.2-52.1 256.1-81.6 23-9.2 44.6-18.5 64.6-27.8 0.3-0.1 0.5-0.2 0.8-0.4 43.5-20.4 77.5-40.4 101.2-59.4 15.5-12.4 27-24.6 35.1-37.4 17.2-27 16.1-51.2 12.2-66.7z" fill="#76c4fd" p-id="17370"></path><path d="M812.8 310.3c11.7 18.6 21.8 38.3 30.2 58.9 4.7-0.1 9.2-0.2 13.7-0.2v-60c-13.8 0-28.4 0.4-43.9 1.3z" fill="#76c4fd" p-id="17371"></path><path d="M306.2 519m-32.9 0a32.9 32.9 0 1 0 65.8 0 32.9 32.9 0 1 0-65.8 0Z" fill="#76c4fd" p-id="17372"></path><path d="M621.1 390.9m-52 0a52 52 0 1 0 104 0 52 52 0 1 0-104 0Z" fill="#76c4fd" p-id="17373"></path><path d="M464 740.8m-35.7 0a35.7 35.7 0 1 0 71.4 0 35.7 35.7 0 1 0-71.4 0Z" fill="#76c4fd" p-id="17374"></path></svg>